<?xml version="1.0" encoding="UTF-8"?>
<svg id="svg" width="400" height="400" version="1.1" viewBox="0 0 400 400" xmlns="http://www.w3.org/2000/svg">
 <g transform="matrix(3.5135 0 0 3.5135 -264.65 -130.45)" font-family="Arial">
  <text x="75.447403" y="128.26498" font-size="41.433px" stroke-width="2.2196" style="line-height:1.25" xml:space="preserve"><tspan x="75.447403" y="128.26498" font-family="Amaze" stroke-width="2.2196">Luana</tspan></text>
  <text x="124.39154" y="110.27158" font-size="15.395px" stroke-width=".82475" style="line-height:1.25" xml:space="preserve"><tspan x="124.39154" y="110.27158" font-family="Amaze" stroke-width=".82475">Confecções</tspan></text>
 </g>
 <path d="m241.52 149.21c-0.66423 2.8685 2.9607 0 0 0zm-46.32 13.017c3.3155 3.9589 5.6067 5.9055 9.5731 8.9379m0.57183-14.182c-18.661 7.1768-42.939 35.487-50.89 34.988-9.7217-0.58753 2.7772-15.814 2.7772-15.814s-8.1492 3.2305-11.285 0.83025c-4.5686-3.4968 4.4304-10.969 4.4304-10.969s-9.5345 0.34327-8.67-6.3265c0.48435-3.7372 3.8727-4.0427 9.1758-4.282-3.208-2.9568-3.1398-4.8182-2.51-6.8965 0.70758-2.3347 5.438-4.335 8.7147-1.3847-0.28707-4.9551 0.84286-7.0243 3.2871-8.1842 2.7768-1.3178 10.338 0.47889 12.944-1.566 3.6117-2.8348 2.1004-18.973 1.7116-22.053-0.36544-2.8959-22.286-15.832-23.631-17.155-1.997-1.9625-1.5806-4.1719-1.5806-4.1719 1.5321-6.1949 6.8996-3.449 9.3246-1.4656 0 0-1.4013-7.2593 1.8298-8.7108 2.4616-1.1157 4.4086 1.5402 6.2368 3.3801 1.2388 1.2468 2.145 2.3173 2.145 2.3173s-1.0818-6.79 1.2985-8.8932c0.44145-0.39003 1.6683-0.55932 1.9795-0.55102 1.5663 0.0421 3.2661 2.5282 3.5463 2.9711l1.734 2.7432s0.26135-7.3954 4.4376-7.8291c4.1762-0.43372 6.4228 7.7086 6.4228 7.7086s0.62601-2.3482 1.6112-4.725c1.0164-2.452 1.7797-4.9036 3.9027-4.9013 3.9642 0.0039 5.0648 8.2207 5.0648 8.2207 2.4479-5.6379 8.1527-3.2961 7.0956 2.675m17.648 75.068c4.5373-2.631 12.928-2.4653 17.243 0m-18.382-12.929c-0.66424 2.8685 2.9605 0 0 0zm-16.471-62.472c-0.93228 6.425-5.3181 16.041-6.8871 21.144-2.8442 9.2504 16.848 21.125 22.681 21.865l0.97134 0.16192c14.298 0.68603 20.6-1.499 26.257 7.1532 0.79143 2.2644 1.3104 4.9022 1.1391 7.5708-0.89212 11.748-11.787 21.655-18.015 28.89-7.2605-8.0176-15.293-16.399-19.713-23.018-0.81417-1.5411-1.0329-3.0324-0.97471-4.2216 0.56365-11.525 18.283-3.5166 19.776-3.2272 3.336 0.64728 4.8858-1.6036 8.7597-1.9923 6.9286-0.69526 8.6463 1.718 9.9654 1.5605" fill="none" stroke="#000" stroke-width="3.5968"/>
 <rect x="222.1" y="148.25" width="2.6494" height="2.7475" rx="23.496" ry="2.7475" fill-rule="evenodd" stroke-width=".51805"/>
 <rect x="240.74" y="148.54" width="2.6494" height="2.7475" rx="23.496" ry="2.7475" fill-rule="evenodd" stroke-width=".51805"/>
 <path d="m201.84 174.86c1.0058-3.1806 3.8921-6.1176 6.3206-7.7586 10.526-5.4344 19.652 1.1488 24.549 8.7329 1.8962-3.2894 3.7308-6.0299 6.471-8.1547 0.79986-0.61485 1.6389-1.1898 2.5342-1.6546 1.4282-0.76563 3.0674-1.0199 4.5392-1.1931 4.3475-0.33228 7.5814 0.77047 10.184 3.1968 2.4046 2.2423 3.5062 5.4714 3.6039 9.1815-0.24263 4.5833-1.6021 7.5457-3.971 11.053-4.7601 6.022-10.788 11.241-13.39 14.695-2.7518 3.7255-4.4084 7.5471-4.8472 9.5221-0.43887 1.975 0.0582 2.4095-1.9621 0.51854-2.0203-1.8909-4.1451-3.2812-6.2086-4.9984-9.6179-8.0039-21.665-14.247-27.13-23.386-1.327-2.9769-1.6767-6.6456-0.69396-9.7532z" fill="#ff16b0" stroke="#fff" stroke-width=".63"/>
</svg>
